<svg xmlns="http://www.w3.org/2000/svg" xmlns:xlink="http://www.w3.org/1999/xlink" version="1.1" x="0px" y="0px" viewBox="0 0 56 80" style="enable-background:new 0 0 56 64;" xml:space="preserve"><g><rect x="27" y="28" width="2" height="13"/><path d="M28,12c-3.86,0-7,3.14-7,7s3.14,7,7,7s7-3.14,7-7S31.86,12,28,12z M28,14c2.596,0,4.711,1.996,4.952,4.53   c-0.078-0.073-0.155-0.146-0.246-0.237C32.16,17.747,31.413,17,29.998,17c-1.415,0-2.163,0.747-2.708,1.293   C26.799,18.783,26.558,19,25.996,19c-0.561,0-0.801-0.217-1.29-0.707c-0.342-0.342-0.763-0.763-1.377-1.03   C24.038,15.364,25.856,14,28,14z M28,24c-2.595,0-4.71-1.995-4.952-4.527c0.077,0.072,0.152,0.143,0.243,0.234   C23.836,20.252,24.583,21,25.996,21c1.415,0,2.162-0.747,2.708-1.292C29.194,19.217,29.435,19,29.998,19   c0.562,0,0.803,0.217,1.294,0.708c0.342,0.342,0.764,0.763,1.379,1.029C31.962,22.637,30.144,24,28,24z"/><path d="M42.691,50.035C41.139,48.764,39.157,48,37,48h-1v-2h3c0.552,0,1-0.448,1-1v-1.852l4.641,1.785   C44.757,44.978,44.879,45,45,45c0.199,0,0.397-0.06,0.566-0.176C45.838,44.638,46,44.33,46,44V31.308   c0-0.414-0.255-0.785-0.641-0.933L40,28.313V12c0-0.265-0.105-0.52-0.293-0.707l-11-11c-0.391-0.391-1.023-0.391-1.414,0l-11,11   C16.105,11.48,16,11.735,16,12v16.313l-5.359,2.061C10.255,30.523,10,30.894,10,31.308V44c0,0.33,0.162,0.638,0.434,0.824   C10.603,44.94,10.801,45,11,45c0.121,0,0.243-0.022,0.359-0.066L16,43.148V45c0,0.552,0.448,1,1,1h3v2h-1   c-2.157,0-4.139,0.764-5.691,2.035C5.911,50.399,0,56.513,0,64h2c0-5.699,3.998-10.474,9.334-11.691C10.494,53.677,10,55.28,10,57   h2c0-3.86,3.14-7,7-7h2c0.552,0,1-0.448,1-1v-3h12v3c0,0.552,0.448,1,1,1h2c3.86,0,7,3.14,7,7h2c0-1.72-0.494-3.323-1.334-4.691   C50.002,53.526,54,58.301,54,64h2C56,56.513,50.089,50.399,42.691,50.035z M44,31.995v10.549l-4-1.539V30.456L44,31.995z    M12,42.544V31.995l4-1.539v10.549L12,42.544z M18,41.692V29V12.414l10-10l10,10V29v12.692V44H18V41.692z"/><path d="M18,55h-2c0,1.119,0.215,2.186,0.589,3.174C13.96,58.812,12,61.178,12,64h2c0-2.052,1.559-3.729,3.552-3.955   C19.172,62.43,21.906,64,25,64v-2C21.14,62,18,58.86,18,55z"/><path d="M39,52c-3.33,0-6.346,1.365-8.522,3.564C29.542,53.467,27.441,52,25,52v2c2.024,0,3.684,1.516,3.946,3.47   C27.72,59.351,27,61.591,27,64h2c0-5.514,4.486-10,10-10V52z"/><path d="M38,58v2c2.206,0,4,1.794,4,4h2C44,60.691,41.309,58,38,58z"/><rect x="29" y="48" width="2" height="2"/><rect x="25" y="48" width="2" height="2"/></g><text x="0" y="79" fill="#000000" font-size="5px" font-weight="bold" font-family="'Helvetica Neue', Helvetica, Arial-Unicode, Arial, Sans-serif">Created by Becris</text><text x="0" y="84" fill="#000000" font-size="5px" font-weight="bold" font-family="'Helvetica Neue', Helvetica, Arial-Unicode, Arial, Sans-serif">from the Noun Project</text></svg>